<?xml version="1.0" encoding="utf-8"?>
<!-- Generator: Adobe Illustrator 16.0.0, SVG Export Plug-In . SVG Version: 6.00 Build 0)  -->
<!DOCTYPE svg PUBLIC "-//W3C//DTD SVG 1.1//EN" "http://www.w3.org/Graphics/SVG/1.1/DTD/svg11.dtd">
<svg version="1.1" id="Calque_1" xmlns="http://www.w3.org/2000/svg" xmlns:xlink="http://www.w3.org/1999/xlink" x="0px" y="0px"
	 width="480px" height="480px" viewBox="0 0 480 480" enable-background="new 0 0 480 480" xml:space="preserve">
<g>
	<g>
		<path id="XMLID_687_" fill="none" stroke="#CDB969" stroke-width="2" stroke-miterlimit="10" d="M240,316.898L240,316.898
			c-42.469,0-76.898-34.426-76.898-76.898l0,0c0-42.469,34.43-76.898,76.898-76.898l0,0c42.469,0,76.898,34.43,76.898,76.898l0,0
			C316.898,282.473,282.469,316.898,240,316.898z"/>
	</g>
</g>
<path fill="#CDB969" d="M286,214.401c0-1.326-1.075-2.401-2.401-2.401h-84.197c-1.326,0-2.401,1.075-2.401,2.401v55.197
	c0,1.326,1.075,2.401,2.401,2.401h84.197c1.326,0,2.401-1.075,2.401-2.401V214.401z M276.797,218.004l-14.993,12.831l-19.274,15.72
	l-19.22-15.532l-15.525-13.243l34.784,0.671L276.797,218.004z M202,267v-47.57l18.082,15.287l20.865,16.798
	c0.44,0.356,1.015,0.534,1.55,0.534c0.538,0,1.095-0.197,1.537-0.558l20.563-17.005L281,220.195V267H202z"/>
</svg>
