<?xml version="1.0" encoding="utf-8"?>

<!DOCTYPE svg PUBLIC "-//W3C//DTD SVG 1.1//EN" "http://www.w3.org/Graphics/SVG/1.1/DTD/svg11.dtd">
<svg version="1.1" id="Calque_1" xmlns="http://www.w3.org/2000/svg" xmlns:xlink="http://www.w3.org/1999/xlink" x="0px" y="0px"
	 width="480px" height="480px" viewBox="0 0 480 480" enable-background="new 0 0 480 480" xml:space="preserve">
<g>
	<g>
		<path id="XMLID_687_" fill="none" stroke="#CDB969" stroke-width="6" stroke-miterlimit="10" d="M240.001,440.001L240.001,440.001
			C129.544,440.001,40,350.465,40,240l0,0c0-110.455,89.546-200,200.001-200l0,0C350.456,40,440,129.547,440,240l0,0
			C440,350.465,350.456,440.001,240.001,440.001z"/>
	</g>
	<path fill="#CDB969" d="M346.268,186.268c-2.556-9.609-10.073-17.167-19.616-19.74c-17.291-4.666-86.65-4.666-86.65-4.666
		s-69.359,0-86.664,4.666c-9.532,2.573-17.047,10.13-19.605,19.74c-4.632,17.414-4.632,53.731-4.632,53.731s0,36.329,4.632,53.732
		c2.558,9.608,10.073,17.177,19.605,19.739c17.305,4.666,86.664,4.666,86.664,4.666s69.359,0,86.65-4.666
		c9.543-2.563,17.061-10.131,19.616-19.739c4.633-17.403,4.633-53.732,4.633-53.732S350.903,203.682,346.268,186.268z
		 M217.315,272.982v-65.964L275.285,240L217.315,272.982z"/>
</g>
</svg>
