<?xml version="1.0" encoding="utf-8"?>
<!-- Generator: Adobe Illustrator 16.0.0, SVG Export Plug-In . SVG Version: 6.00 Build 0)  -->
<!DOCTYPE svg PUBLIC "-//W3C//DTD SVG 1.1//EN" "http://www.w3.org/Graphics/SVG/1.1/DTD/svg11.dtd">
<svg version="1.1" id="Calque_1" xmlns="http://www.w3.org/2000/svg" xmlns:xlink="http://www.w3.org/1999/xlink" x="0px" y="0px"
	 width="480px" height="480px" viewBox="0 0 480 480" enable-background="new 0 0 480 480" xml:space="preserve">
<g>
	<path fill="#CDB969" d="M239.829,176c18.01,0,32.621-14.608,32.621-32.624c0-18.013-14.611-32.621-32.621-32.621
		c-18.018,0-32.619,14.608-32.619,32.621C207.21,161.392,221.812,176,239.829,176z"/>
	<path fill="#CDB969" d="M316.744,135.714c0-6.523-5.016-11.813-11.541-11.813c-6.523,0-11.669,5.29-11.669,11.813
		c0,29.656-24.065,53.784-53.722,53.784c-29.661,0-53.754-24.128-53.754-53.784c0-6.523-5.264-11.813-11.784-11.813
		c-6.526,0-10.671,5.29-10.671,11.813c0,30.431,18.396,56.806,44.396,69.444v58.583v10.138v67.475c0,6.525,7.974,11.817,14.5,11.817
		c6.525,0,14.5-5.292,14.5-11.817V274h8v67.354c0,6.525,6.475,11.817,13,11.817c6.531,0,13-5.292,13-11.817v-67.475v-10.138v-57.67
		C297,193.825,316.744,166.904,316.744,135.714z"/>
</g>
</svg>
