<?xml version="1.0" encoding="utf-8"?>
<!-- Generator: Adobe Illustrator 16.0.0, SVG Export Plug-In . SVG Version: 6.00 Build 0)  -->
<!DOCTYPE svg PUBLIC "-//W3C//DTD SVG 1.1//EN" "http://www.w3.org/Graphics/SVG/1.1/DTD/svg11.dtd">
<svg version="1.1" id="Calque_1" xmlns="http://www.w3.org/2000/svg" xmlns:xlink="http://www.w3.org/1999/xlink" x="0px" y="0px"
	 width="480px" height="480px" viewBox="0 0 480 480" enable-background="new 0 0 480 480" xml:space="preserve">
<circle fill-rule="evenodd" clip-rule="evenodd" fill="#CDB969" cx="225.098" cy="95.665" r="29.086"/>
<g>
	<path fill-rule="evenodd" clip-rule="evenodd" fill="#CDB969" d="M209.619,412.352c-2.527,0-5.048,0-7.569,0
		c-3.202-2.105-6.881-3.74-9.499-6.424c-3.528-3.613-3.316-8.68-3.316-13.484c0.018-70.27,0.016-140.535,0.016-210.796
		c0-1.782,0-3.566,0-5.524c-2.2,0-3.9,0-5.915,0c0,1.99,0,3.651,0,5.311c0,23.658,0.018,47.311-0.023,70.964
		c-0.006,2.361-0.109,4.781-0.587,7.088c-0.962,4.668-3.928,7.623-8.586,8.748c-7.077,1.717-11.874-1.006-15.806-8.9
		c0-31.945,0-63.892,0-95.837c0.252-0.77,0.597-1.525,0.748-2.312c3.156-16.498,16.32-29.055,33.003-29.558
		c22.38-0.666,44.798-0.339,67.191,0.022c4.148,0.064,8.584,1.692,12.326,3.666c13.957,7.382,20.293,19.576,20.369,35.062
		c0.133,28.006,0.041,56.022,0.037,84.026c0,1.119,0.01,2.248-0.113,3.357c-0.768,6.775-5.764,11.117-12.566,10.959
		c-6.697-0.156-11.236-4.416-11.846-11.176c-0.158-1.811-0.17-3.639-0.174-5.455c-0.014-23.67-0.01-47.335-0.01-71.005
		c0-1.628,0-3.251,0-5.001c-2.193,0-3.787,0-5.744,0c0,2.079,0,3.874,0,5.666c0,70.169,0.008,140.335-0.002,210.498
		c0,11.795-2.625,15.738-13.261,20.107c-2.241,0-4.484,0-6.728,0c-10.958-4.518-13.461-8.301-13.463-20.383
		c-0.002-39.641,0-79.281,0-118.924c0-1.629,0-3.262,0-4.916c-2.16,0-3.763,0-5.775,0c0,1.906,0,3.561,0,5.209
		c0,39.355-0.182,78.721,0.125,118.078C222.53,401.523,219.461,408.777,209.619,412.352z"/>
</g>
</svg>
