<?xml version="1.0" encoding="utf-8"?>
<!-- Generator: Adobe Illustrator 16.0.0, SVG Export Plug-In . SVG Version: 6.00 Build 0)  -->
<!DOCTYPE svg PUBLIC "-//W3C//DTD SVG 1.1//EN" "http://www.w3.org/Graphics/SVG/1.1/DTD/svg11.dtd">
<svg version="1.1" id="Calque_1" xmlns="http://www.w3.org/2000/svg" xmlns:xlink="http://www.w3.org/1999/xlink" x="0px" y="0px"
	 width="480px" height="480px" viewBox="0 0 480 480" enable-background="new 0 0 480 480" xml:space="preserve">
<circle fill-rule="evenodd" clip-rule="evenodd" fill="#CDB969" cx="225.098" cy="95.665" r="29.086"/>
<g>
	<path fill-rule="evenodd" clip-rule="evenodd" fill="#CDB969" d="M145.2,246.776c0-2.269,0-4.538,0-6.799
		c1.125-3.492,2.297-6.964,3.364-10.472c7.363-24.217,14.39-48.535,22.168-72.613c4.843-14.99,15.375-24.561,31.437-25.775
		c13.239-1.005,26.595-0.622,39.9-0.622c18.404,0.01,32.886,10.889,38.231,28.495c4.356,14.339,8.628,28.705,13.038,43.026
		c3.813,12.39,7.768,24.745,11.659,37.109c0,2.268,0,4.535,0,6.799c-2.004,4.785-4.793,8.726-10.475,9.34
		c-6.436,0.7-10.914-2.989-13.333-11.089c-6.847-22.892-13.634-45.8-20.439-68.707c-1.546-5.187-1.853-5.367-7.649-3.951
		c12.749,43.972,25.49,87.938,38.404,132.504c-12.127,0-23.803,0-35.853,0c0,2.049,0,3.579,0,5.104c0,29.74,0.005,59.486,0,89.23
		c0,1.551,0.047,3.121-0.104,4.664c-0.831,8.535-8.478,13.774-16.76,11.53c-6.814-1.845-9.712-6.178-9.718-14.895
		c-0.032-30.307-0.015-60.613-0.015-90.924c0-1.638,0-3.272,0-4.988c-2.977,0-5.305,0-8.04,0c0,1.975,0,3.643,0,5.313
		c0.007,29.599,0.021,59.204,0.021,88.799c0,1.847,0.019,3.691-0.156,5.52c-0.535,5.481-3.423,9.167-8.667,10.907
		c-9.377,3.117-17.715-3.006-17.742-13.238c-0.077-30.597-0.029-61.185-0.034-91.778c0-1.628,0-3.26,0-5.292
		c-12.197,0-23.761,0-35.886,0c12.808-44.561,25.468-88.588,38.103-132.53c-4.464-1.623-6.118-0.035-7.169,3.737
		c-3.591,12.939-7.502,25.785-11.31,38.667c-3.085,10.44-6.1,20.901-9.328,31.296c-2.594,8.352-9.211,12.322-16.11,9.079
		C149.72,252.803,147.679,249.322,145.2,246.776z"/>
	<path fill-rule="evenodd" clip-rule="evenodd" fill="#CDB969" d="M229.347,66.579c9.125,2.326,16.591,6.834,21.093,15.521
		c7.396,14.27,1.026,32.237-13.88,38.833c-14.371,6.363-31.977-0.909-37.585-15.518c-5.895-15.367,2.125-32.388,17.551-37.282
		c1.459-0.463,2.878-1.035,4.322-1.553C223.683,66.579,226.514,66.579,229.347,66.579z"/>
</g>
</svg>
