<?xml version="1.0" encoding="utf-8"?>
<!-- Generator: Adobe Illustrator 16.0.0, SVG Export Plug-In . SVG Version: 6.00 Build 0)  -->
<!DOCTYPE svg PUBLIC "-//W3C//DTD SVG 1.1//EN" "http://www.w3.org/Graphics/SVG/1.1/DTD/svg11.dtd">
<svg version="1.1" id="Calque_1" xmlns="http://www.w3.org/2000/svg" xmlns:xlink="http://www.w3.org/1999/xlink" x="0px" y="0px"
	 width="480px" height="480px" viewBox="0 0 480 480" enable-background="new 0 0 480 480" xml:space="preserve">
<g>
	<g>
		<path id="XMLID_687_" fill="none" stroke="#CDB969" stroke-width="2" stroke-miterlimit="10" d="M240,316.898L240,316.898
			c-42.469,0-76.898-34.426-76.898-76.898l0,0c0-42.469,34.43-76.898,76.898-76.898l0,0c42.469,0,76.898,34.43,76.898,76.898l0,0
			C316.898,282.473,282.469,316.898,240,316.898z"/>
	</g>
</g>
<g>
	<g id="XMLID_649_">
		<path id="XMLID_656_" fill="#CDB969" d="M240,209.327c9.984,0,11.168,0.038,15.112,0.217c3.645,0.166,5.626,0.774,6.942,1.287
			c1.742,0.679,2.99,1.489,4.3,2.796c1.309,1.311,2.117,2.556,2.796,4.301c0.512,1.317,1.12,3.298,1.287,6.944
			c0.182,3.942,0.221,5.125,0.221,15.111c0,9.984-0.039,11.166-0.221,15.11c-0.167,3.645-0.775,5.628-1.287,6.942
			c-0.679,1.746-1.487,2.99-2.796,4.302c-1.31,1.309-2.558,2.117-4.3,2.796c-1.316,0.51-3.298,1.121-6.942,1.287
			c-3.944,0.18-5.128,0.219-15.112,0.219s-11.167-0.039-15.112-0.219c-3.644-0.166-5.625-0.777-6.941-1.287
			c-1.747-0.679-2.991-1.487-4.3-2.796c-1.31-1.312-2.118-2.556-2.797-4.302c-0.51-1.314-1.121-3.298-1.286-6.942
			c-0.182-3.944-0.22-5.126-0.22-15.11c0-9.986,0.038-11.168,0.22-15.111c0.165-3.646,0.776-5.627,1.286-6.944
			c0.68-1.745,1.487-2.99,2.797-4.301c1.309-1.307,2.554-2.118,4.3-2.796c1.316-0.513,3.297-1.121,6.941-1.287
			C228.833,209.364,230.016,209.327,240,209.327 M240,202.587c-10.155,0-11.429,0.044-15.416,0.226
			c-3.983,0.181-6.7,0.814-9.08,1.739c-2.457,0.954-4.546,2.233-6.622,4.312c-2.082,2.079-3.359,4.167-4.313,6.625
			c-0.925,2.378-1.559,5.095-1.74,9.076c-0.181,3.989-0.226,5.263-0.226,15.419c0,10.154,0.045,11.43,0.226,15.416
			c0.181,3.983,0.815,6.698,1.74,9.078c0.953,2.457,2.231,4.547,4.313,6.622c2.076,2.082,4.165,3.359,6.622,4.313
			c2.379,0.924,5.096,1.558,9.08,1.739c3.986,0.182,5.26,0.227,15.416,0.227c10.156,0,11.427-0.045,15.416-0.227
			c3.983-0.182,6.7-0.815,9.079-1.739c2.458-0.954,4.546-2.231,6.621-4.313c2.08-2.075,3.356-4.165,4.313-6.622
			c0.925-2.38,1.56-5.095,1.739-9.078c0.182-3.986,0.227-5.262,0.227-15.416c0-10.156-0.045-11.43-0.227-15.419
			c-0.18-3.98-0.814-6.697-1.739-9.076c-0.957-2.458-2.233-4.546-4.313-6.625c-2.075-2.079-4.163-3.358-6.621-4.312
			c-2.379-0.924-5.096-1.558-9.079-1.739C251.427,202.631,250.156,202.587,240,202.587"/>
		<path id="XMLID_653_" fill="#CDB969" d="M240,220.779c-10.605,0-19.202,8.599-19.202,19.204c0,10.604,8.597,19.202,19.202,19.202
			c10.605,0,19.202-8.599,19.202-19.202C259.202,229.378,250.605,220.779,240,220.779 M240,252.446
			c-6.887,0-12.464-5.58-12.464-12.463c0-6.885,5.577-12.465,12.464-12.465c6.883,0,12.465,5.58,12.465,12.465
			C252.465,246.866,246.883,252.446,240,252.446"/>
		<path id="XMLID_652_" fill="#CDB969" d="M264.449,220.022c0,2.476-2.01,4.487-4.486,4.487c-2.48,0-4.489-2.012-4.489-4.487
			c0-2.479,2.009-4.488,4.489-4.488C262.439,215.534,264.449,217.544,264.449,220.022"/>
	</g>
</g>
</svg>
