<?xml version="1.0" encoding="utf-8"?>
<!-- Generator: Adobe Illustrator 16.0.0, SVG Export Plug-In . SVG Version: 6.00 Build 0)  -->
<!DOCTYPE svg PUBLIC "-//W3C//DTD SVG 1.1//EN" "http://www.w3.org/Graphics/SVG/1.1/DTD/svg11.dtd">
<svg version="1.1" id="Calque_1" xmlns="http://www.w3.org/2000/svg" xmlns:xlink="http://www.w3.org/1999/xlink" x="0px" y="0px"
	 width="480px" height="480px" viewBox="0 0 480 480" enable-background="new 0 0 480 480" xml:space="preserve">
<g>
	<g>
		<path id="XMLID_687_" fill="none" stroke="#CDB969" stroke-width="6" stroke-miterlimit="10" d="M240.001,440.001L240.001,440.001
			C129.544,440.001,40,350.465,40,240l0,0c0-110.455,89.546-200,200.001-200l0,0C350.456,40,440,129.547,440,240l0,0
			C440,350.465,350.456,440.001,240.001,440.001z"/>
	</g>
</g>
<g>
	<g id="XMLID_810_">
		<path id="XMLID_811_" fill="#CDB969" d="M327.053,276.945c-4.757-2.332-27.809-13.64-32.114-15.161
			c-4.303-1.612-7.449-2.329-10.576,2.329c-3.145,4.668-12.206,15.168-14.894,18.211c-2.776,3.145-5.471,3.498-10.229,1.169
			c-4.655-2.329-19.826-7.173-37.758-23.144c-13.898-12.293-23.415-27.533-26.105-32.2c-2.69-4.658-0.272-7.17,2.067-9.5
			c2.156-2.154,4.661-5.48,7.079-8.162c0.633-0.812,1.166-1.532,1.705-2.244c1.079-1.709,1.89-3.321,2.964-5.561
			c1.61-3.137,0.805-5.83-0.363-8.163c-1.161-2.331-10.574-25.293-14.528-34.625c-3.848-9.324-7.802-7.715-10.576-7.715
			c-2.698,0-5.834-0.445-8.979-0.445c-3.137,0-8.25,1.171-12.56,5.832c-4.305,4.666-16.413,15.966-16.413,38.927
			c0,5.383,0.99,10.765,2.423,15.88c4.755,16.412,14.978,29.953,16.779,32.292c2.324,3.041,32.467,51.649,80.189,70.398
			c47.807,18.574,47.807,12.38,56.411,11.572c8.61-0.717,27.81-11.212,31.662-22.148c3.955-10.86,3.955-20.185,2.776-22.163
			C334.859,280.439,331.714,279.281,327.053,276.945z"/>
	</g>
</g>
</svg>
