<?xml version="1.0" encoding="utf-8"?>
<!-- Generator: Adobe Illustrator 16.0.0, SVG Export Plug-In . SVG Version: 6.00 Build 0)  -->
<!DOCTYPE svg PUBLIC "-//W3C//DTD SVG 1.1//EN" "http://www.w3.org/Graphics/SVG/1.1/DTD/svg11.dtd">
<svg version="1.1" id="Calque_1" xmlns="http://www.w3.org/2000/svg" xmlns:xlink="http://www.w3.org/1999/xlink" x="0px" y="0px"
	 width="480px" height="480px" viewBox="0 0 480 480" enable-background="new 0 0 480 480" xml:space="preserve">
<g>
	<g>
		<path id="XMLID_687_" fill="none" stroke="#CDB969" stroke-width="2" stroke-miterlimit="10" d="M240,316.898L240,316.898
			c-42.469,0-76.898-34.426-76.898-76.898l0,0c0-42.469,34.43-76.898,76.898-76.898l0,0c42.469,0,76.898,34.43,76.898,76.898l0,0
			C316.898,282.473,282.469,316.898,240,316.898z"/>
	</g>
</g>
<g>
	<path id="XMLID_659_" fill="#CDB969" d="M229.61,281.215h16.598v-41.563h11.58l1.234-13.917h-12.814c0,0,0-5.196,0-7.925
		c0-3.281,0.657-4.579,3.832-4.579c2.553,0,8.982,0,8.982,0v-14.442c0,0-9.471,0-11.491,0c-12.354,0-17.921,5.44-17.921,15.851
		c0,9.069,0,11.096,0,11.096h-8.634v14.093h8.634V281.215z"/>
</g>
</svg>
