<?xml version="1.0" encoding="utf-8"?>
<!-- Generator: Adobe Illustrator 16.0.0, SVG Export Plug-In . SVG Version: 6.00 Build 0)  -->
<!DOCTYPE svg PUBLIC "-//W3C//DTD SVG 1.1//EN" "http://www.w3.org/Graphics/SVG/1.1/DTD/svg11.dtd">
<svg version="1.1" id="Calque_1" xmlns="http://www.w3.org/2000/svg" xmlns:xlink="http://www.w3.org/1999/xlink" x="0px" y="0px"
	 width="480px" height="480px" viewBox="0 0 480 480" enable-background="new 0 0 480 480" xml:space="preserve">
<g>
	<g>
		<path id="XMLID_687_" fill="none" stroke="#CDB969" stroke-width="2" stroke-miterlimit="10" d="M240,316.898L240,316.898
			c-42.469,0-76.898-34.426-76.898-76.898l0,0c0-42.469,34.43-76.898,76.898-76.898l0,0c42.469,0,76.898,34.43,76.898,76.898l0,0
			C316.898,282.473,282.469,316.898,240,316.898z"/>
	</g>
</g>
<g>
	<g id="XMLID_810_">
		<path id="XMLID_811_" fill-rule="evenodd" clip-rule="evenodd" fill="#CDB969" d="M273.471,254.205
			c-1.829-0.896-10.692-5.244-12.348-5.829c-1.654-0.62-2.864-0.896-4.066,0.896c-1.209,1.794-4.693,5.832-5.727,7.002
			c-1.067,1.209-2.103,1.344-3.932,0.449c-1.79-0.896-7.623-2.758-14.518-8.899c-5.344-4.726-9.003-10.586-10.037-12.38
			c-1.034-1.791-0.104-2.757,0.795-3.653c0.829-0.828,1.792-2.107,2.722-3.138c0.243-0.312,0.448-0.589,0.655-0.863
			c0.415-0.657,0.726-1.277,1.14-2.138c0.619-1.206,0.309-2.242-0.14-3.139c-0.446-0.896-4.066-9.725-5.586-13.313
			c-1.48-3.585-3-2.966-4.066-2.966c-1.038,0-2.244-0.171-3.453-0.171c-1.206,0-3.171,0.45-4.829,2.242
			c-1.655,1.794-6.31,6.139-6.31,14.967c0,2.07,0.381,4.139,0.931,6.106c1.829,6.31,5.759,11.517,6.452,12.416
			c0.893,1.169,12.483,19.859,30.832,27.068c18.38,7.141,18.38,4.759,21.689,4.448c3.311-0.275,10.692-4.31,12.174-8.515
			c1.52-4.176,1.52-7.761,1.067-8.521C276.472,255.549,275.263,255.104,273.471,254.205z"/>
	</g>
</g>
</svg>
