<?xml version="1.0" encoding="utf-8"?>

<!DOCTYPE svg PUBLIC "-//W3C//DTD SVG 1.1//EN" "http://www.w3.org/Graphics/SVG/1.1/DTD/svg11.dtd">
<svg version="1.1" id="Calque_1" xmlns="http://www.w3.org/2000/svg" xmlns:xlink="http://www.w3.org/1999/xlink" x="0px" y="0px"
	 width="480px" height="480px" viewBox="0 0 480 480" enable-background="new 0 0 480 480" xml:space="preserve">
<g>
	<g>
		<path id="XMLID_687_" fill="none" stroke="#CDB969" stroke-width="6" stroke-miterlimit="10" d="M240.001,440.001L240.001,440.001
			C129.544,440.001,40,350.465,40,240l0,0c0-110.455,89.546-200,200.001-200l0,0C350.456,40,440,129.547,440,240l0,0
			C440,350.465,350.456,440.001,240.001,440.001z"/>
	</g>
</g>
<g>
	<g id="XMLID_649_">
		<path id="XMLID_656_" fill="#CDB969" d="M240.001,160.224c25.965,0,29.046,0.099,39.302,0.564
			c9.481,0.432,14.633,2.013,18.057,3.348c4.531,1.765,7.777,3.872,11.183,7.271c3.406,3.41,5.507,6.648,7.272,11.186
			c1.333,3.427,2.913,8.579,3.348,18.062c0.475,10.252,0.573,13.329,0.573,39.301c0,25.967-0.099,29.04-0.573,39.299
			c-0.435,9.481-2.015,14.637-3.348,18.056c-1.766,4.542-3.866,7.777-7.272,11.188c-3.405,3.406-6.651,5.507-11.183,7.271
			c-3.424,1.326-8.577,2.916-18.057,3.348c-10.256,0.468-13.337,0.569-39.302,0.569c-25.968,0-29.044-0.102-39.305-0.569
			c-9.476-0.432-14.629-2.021-18.053-3.348c-4.542-1.765-7.777-3.865-11.183-7.271c-3.406-3.411-5.509-6.646-7.274-11.188
			c-1.326-3.419-2.916-8.579-3.345-18.056c-0.472-10.259-0.571-13.332-0.571-39.299c0-25.972,0.099-29.046,0.571-39.301
			c0.429-9.483,2.02-14.635,3.345-18.06c1.768-4.539,3.868-7.777,7.274-11.187c3.406-3.399,6.644-5.509,11.183-7.271
			c3.424-1.335,8.577-2.916,18.053-3.348C210.957,160.321,214.033,160.224,240.001,160.224 M240.001,142.694
			c-26.413,0-29.727,0.114-40.095,0.588c-10.36,0.471-17.426,2.117-23.616,4.522c-6.39,2.481-11.823,5.809-17.223,11.216
			c-5.415,5.406-8.737,10.838-11.218,17.231c-2.405,6.185-4.054,13.25-4.524,23.604c-0.472,10.375-0.589,13.688-0.589,40.102
			c0,26.412,0.117,29.728,0.589,40.096c0.47,10.357,2.119,17.419,4.524,23.61c2.479,6.391,5.803,11.826,11.218,17.221
			c5.4,5.415,10.833,8.737,17.223,11.219c6.188,2.403,13.253,4.052,23.616,4.523c10.365,0.473,13.68,0.59,40.095,0.59
			c26.412,0,29.719-0.117,40.095-0.59c10.357-0.472,17.426-2.12,23.613-4.523c6.393-2.481,11.823-5.804,17.221-11.219
			c5.407-5.395,8.727-10.83,11.216-17.221c2.405-6.191,4.057-13.253,4.523-23.61c0.473-10.368,0.59-13.685,0.59-40.096
			c0-26.414-0.117-29.727-0.59-40.102c-0.47-10.352-2.118-17.417-4.523-23.606c-2.489-6.392-5.809-11.823-11.216-17.23
			c-5.397-5.406-10.828-8.733-17.221-11.215c-6.188-2.403-13.256-4.051-23.613-4.522
			C269.72,142.808,266.413,142.694,240.001,142.694"/>
		<path id="XMLID_653_" fill="#CDB969" d="M240.001,190.008c-27.583,0-49.942,22.365-49.942,49.947
			c0,27.579,22.358,49.943,49.942,49.943c27.58,0,49.941-22.366,49.941-49.943C289.943,212.373,267.581,190.008,240.001,190.008
			 M240.001,272.368c-17.914,0-32.417-14.511-32.417-32.413c0-17.906,14.503-32.419,32.417-32.419
			c17.901,0,32.419,14.513,32.419,32.419C272.42,257.857,257.903,272.368,240.001,272.368"/>
		<path id="XMLID_652_" fill="#CDB969" d="M303.59,188.04c0,6.44-5.229,11.67-11.669,11.67c-6.451,0-11.676-5.232-11.676-11.67
			c0-6.447,5.225-11.672,11.676-11.672C298.361,176.368,303.59,181.595,303.59,188.04"/>
	</g>
</g>
</svg>
