<?xml version="1.0" encoding="utf-8"?>
<!-- Generator: Adobe Illustrator 16.0.0, SVG Export Plug-In . SVG Version: 6.00 Build 0)  -->
<!DOCTYPE svg PUBLIC "-//W3C//DTD SVG 1.1//EN" "http://www.w3.org/Graphics/SVG/1.1/DTD/svg11.dtd">
<svg version="1.1" id="Calque_1" xmlns="http://www.w3.org/2000/svg" xmlns:xlink="http://www.w3.org/1999/xlink" x="0px" y="0px"
	 width="480px" height="480px" viewBox="0 0 480 480" enable-background="new 0 0 480 480" xml:space="preserve">
<g>
	<g>
		<path id="XMLID_687_" fill="none" stroke="#CDB969" stroke-width="2" stroke-miterlimit="10" d="M240,316.898L240,316.898
			c-42.469,0-76.898-34.426-76.898-76.898l0,0c0-42.469,34.43-76.898,76.898-76.898l0,0c42.469,0,76.898,34.43,76.898,76.898l0,0
			C316.898,282.473,282.469,316.898,240,316.898z"/>
	</g>
	<path fill="#CDB969" d="M280.859,219.341c-0.983-3.695-3.873-6.601-7.542-7.59c-6.649-1.794-33.317-1.794-33.317-1.794
		s-26.668,0-33.321,1.794c-3.665,0.989-6.555,3.895-7.538,7.59c-1.781,6.695-1.781,20.659-1.781,20.659s0,13.968,1.781,20.659
		c0.983,3.694,3.873,6.604,7.538,7.59c6.653,1.794,33.321,1.794,33.321,1.794s26.668,0,33.317-1.794
		c3.669-0.985,6.559-3.896,7.542-7.59c1.781-6.691,1.781-20.659,1.781-20.659S282.641,226.036,280.859,219.341z M231.278,252.682
		v-25.363L253.567,240L231.278,252.682z"/>
</g>
</svg>
