<?xml version="1.0" encoding="utf-8"?>
<!-- Generator: Adobe Illustrator 16.0.0, SVG Export Plug-In . SVG Version: 6.00 Build 0)  -->
<!DOCTYPE svg PUBLIC "-//W3C//DTD SVG 1.1//EN" "http://www.w3.org/Graphics/SVG/1.1/DTD/svg11.dtd">
<svg version="1.1" id="Calque_1" xmlns="http://www.w3.org/2000/svg" xmlns:xlink="http://www.w3.org/1999/xlink" x="0px" y="0px"
	 width="480px" height="480px" viewBox="0 0 480 480" enable-background="new 0 0 480 480" xml:space="preserve">
<g>
	<g>
		<path id="XMLID_1_" fill="none" stroke="#CDB969" stroke-width="6" stroke-miterlimit="10" d="M240,440.001L240,440.001
			c-110.457,0-200-89.536-200-200.001l0,0c0-110.455,89.546-200,200-200l0,0c110.454,0,200,89.547,200,200l0,0
			C440,350.465,350.454,440.001,240,440.001z"/>
	</g>
</g>
<path fill="#CDB969" d="M359.638,173.42c0-3.447-2.794-6.244-6.243-6.244H134.41c-3.446,0-6.243,2.797-6.243,6.244v143.558
	c0,3.449,2.797,6.246,6.243,6.246h218.985c3.449,0,6.243-2.797,6.243-6.246V173.42z M335.703,182.791l-38.993,33.372l-50.132,40.884
	l-49.987-40.395l-40.377-34.445l90.465,1.748L335.703,182.791z M141.169,310.223V186.5l47.028,39.758l54.264,43.692
	c1.147,0.925,2.644,1.387,4.034,1.387c1.399,0,2.848-0.513,3.997-1.45l53.48-44.229l42.661-37.169v121.734H141.169z"/>
</svg>
