<?xml version="1.0" encoding="utf-8"?>

<!DOCTYPE svg PUBLIC "-//W3C//DTD SVG 1.1//EN" "http://www.w3.org/Graphics/SVG/1.1/DTD/svg11.dtd">
<svg version="1.1" id="Calque_1" xmlns="http://www.w3.org/2000/svg" xmlns:xlink="http://www.w3.org/1999/xlink" x="0px" y="0px"
	 width="480px" height="480px" viewBox="0 0 480 480" enable-background="new 0 0 480 480" xml:space="preserve">
<g>
	<g>
		<path id="XMLID_687_" fill="none" stroke="#CDB969" stroke-width="6" stroke-miterlimit="10" d="M240.001,440.001L240.001,440.001
			C129.544,440.001,40,350.465,40,240l0,0c0-110.455,89.546-200,200.001-200l0,0C350.456,40,440,129.547,440,240l0,0
			C440,350.465,350.456,440.001,240.001,440.001z"/>
	</g>
</g>
<g>
	<path id="XMLID_659_" fill="#CDB969" d="M212.977,347.193h43.17V239.094h30.118l3.208-36.196h-33.326c0,0,0-13.513,0-20.611
		c0-8.534,1.71-11.91,9.967-11.91c6.64,0,23.359,0,23.359,0v-37.561c0,0-24.632,0-29.887,0c-32.13,0-46.609,14.148-46.609,41.226
		c0,23.586,0,28.858,0,28.858h-22.456v36.654h22.456V347.193z"/>
</g>
</svg>
