<?xml version="1.0" encoding="utf-8"?>
<!-- Generator: Adobe Illustrator 16.0.0, SVG Export Plug-In . SVG Version: 6.00 Build 0)  -->
<!DOCTYPE svg PUBLIC "-//W3C//DTD SVG 1.1//EN" "http://www.w3.org/Graphics/SVG/1.1/DTD/svg11.dtd">
<svg version="1.1" id="Calque_1" xmlns="http://www.w3.org/2000/svg" xmlns:xlink="http://www.w3.org/1999/xlink" x="0px" y="0px"
	 width="48px" height="48px" viewBox="0 0 48 48" enable-background="new 0 0 48 48" xml:space="preserve">
<g>
	<path fill="#CDB969" d="M4.388,25.484 M4.388,26.437v2.884c0,0.215-0.196,0.287-0.661,0.287v0.142h7.089v-2.643
		c-1,0-1.482,0.643-1.678,1.607c-0.179,0.894-0.661,0.894-1.232,0.894H7.477c-0.392,0-0.5-0.037-0.5-0.305v-2.866 M6.977,25.484
		 M4.388,25.484V19.75c0-0.215-0.196-0.287-0.661-0.287v-0.142h3.911v0.142c-0.465,0-0.661,0.072-0.661,0.287v5.735H4.388z"/>
	<path fill="#CDB969" d="M18.603,26.437v2.438c0,0.126,0.054,0.59,0.5,0.59h0.161v0.144c-1.946,0.142-2.161,0.159-2.25,0.159
		c-0.554,0-1-0.159-1-0.893v-0.553c-0.036,0.089-0.446,1.428-1.804,1.428c-1.446,0-2.018-0.981-2.018-2.625v-0.688h2.571v1.92
		c0,0.375,0.179,0.553,0.411,0.553c0.536,0,0.75-0.874,0.839-1.249v-1.224H18.603z M18.603,25.484 M16.014,25.484v-2.253
		c0-0.268-0.322-0.304-0.661-0.304v-0.142c1.232,0,2.357-0.286,3.25-0.822v3.521H16.014z M12.192,25.484v-2.253
		c0-0.268-0.322-0.304-0.661-0.304v-0.142c1.232,0,2.339-0.286,3.232-0.822v3.521H12.192z"/>
	<path fill="#CDB969" d="M20.64,25.484 M20.64,26.437 M23.229,26.437v2.884c0,0.215,0.196,0.287,0.66,0.287v0.142h-3.91v-0.142
		c0.464,0,0.661-0.072,0.661-0.287v-2.884H23.229 M23.229,26.437 M23.229,25.484 M20.64,25.484v-2.253
		c0-0.268-0.322-0.304-0.661-0.304v-0.142c1.232,0,2.357-0.286,3.25-0.822v3.521H20.64z M20.818,20.392
		c0-0.607,0.5-1.107,1.125-1.107c0.607,0,1.107,0.5,1.107,1.107c0,0.625-0.5,1.125-1.107,1.125
		C21.319,21.517,20.818,21.017,20.818,20.392z"/>
	<path fill="#CDB969" d="M31.337,26.437v2.438c0,0.126,0.054,0.59,0.5,0.59h0.161v0.144l-1.912,0.142
		c-0.714,0.035-1.339,0-1.339-0.875v-0.16c-0.25,0.606-0.964,1.035-1.731,1.035c-1.089,0-2.3-0.869-2.479-3.312l2.448-0.02
		c0.104,2.005,0.524,2.813,0.959,2.813c0.499,0,0.785-0.554,0.803-1.036v-1.759H31.337z M28.747,25.484v-0.932
		c-0.071-0.929-0.125-1.821-0.839-1.821c-0.464,0-0.946,0.625-0.946,2.696c0,0.019,0,0.038,0,0.057h-2.438
		c0.119-2.295,1.51-3.521,2.688-3.521c0.679,0,1.285,0.393,1.535,1.25v-3.447c0-0.268-0.321-0.304-0.66-0.304v-0.142
		c1.232,0,2.357-0.286,3.25-0.822v6.985H28.747z"/>
	<path fill="#CDB969" d="M35.855,26.437v5.277c0,0.84-0.321,2.981-4.035,2.981c0,0,1.446-0.625,1.446-3.606v-4.652H35.855z
		 M33.267,25.484v-2.253c0-0.268-0.322-0.304-0.661-0.304v-0.142c1.232,0,2.357-0.286,3.25-0.822v3.521H33.267z M33.373,20.427
		c0-0.607,0.5-1.106,1.125-1.106c0.607,0,1.107,0.5,1.107,1.106c0,0.626-0.5,1.125-1.107,1.125
		C33.873,21.552,33.373,21.053,33.373,20.427z"/>
	<path fill="#CDB969" d="M43.179,25.484l0.98-3.217c0.036-0.143,0.019-0.161-0.179-0.161h-0.303v-0.143h1.339v0.143h-0.179
		c-0.268,0-0.393,0.018-0.429,0.179l-0.979,3.198L43.179,25.484z M38.165,25.489l-0.826-3.08c-0.054-0.231-0.286-0.303-0.911-0.303
		v-0.143h4.215v0.143c-0.429,0-0.715,0-0.644,0.232l0.836,3.138L38.165,25.489z M41.087,26.435c0.322,1.246,0.678,2.439,0.876,2.439
		c0.072,0,0.161-0.071,0.286-0.339l0.64-2.099h0.25l-1.015,3.313c-0.394,1.411-1.035,3.84-3.107,3.84
		c-0.893,0-1.571-0.679-1.571-1.572c0-0.856,0.625-1.535,1.447-1.535c1.499,0,1.356,1.357,1.821,1.357c0.57,0,0.821-0.982,1.16-2.09
		l0.196-0.607c-0.321,0.34-0.804,0.607-1.41,0.607c-1.036,0-1.482-0.5-1.768-1.554l-0.474-1.76L41.087,26.435z"/>
</g>
<rect x="3.686" y="31.367" fill="none" width="23.417" height="3.741"/>
<text transform="matrix(1 0 0 1 3.6865 34.6445)" fill="#CDB969" font-family="'OldSansBlack'" font-size="4.4707">coiffure</text>
<g>
	
		<ellipse transform="matrix(0.9856 0.1692 -0.1692 0.9856 2.4787 -5.8366)" fill="none" cx="35.486" cy="11.625" rx="1.286" ry="1.551"/>
	
		<ellipse transform="matrix(-0.4156 -0.9096 0.9096 -0.4156 44.5508 62.4048)" fill="none" cx="42.324" cy="16.89" rx="1.287" ry="1.55"/>
	<path fill="#CDB969" d="M44.332,15.971c-0.421-0.919-1.66-1.254-2.77-0.746c-0.533,0.243-0.939,0.639-1.171,1.085
		c-0.272,0.527-0.714,0.949-1.271,1.152c-1.031,0.375-2.529,0.875-3.43,0.97c-0.138-0.895-0.038-2.471,0.062-3.563
		c0.053-0.592,0.348-1.126,0.788-1.525c0.373-0.336,0.649-0.83,0.749-1.409c0.194-1.127-0.356-2.177-1.249-2.444
		c0.022-0.509,0.082-1.277,0.25-1.545c0.021-0.035,0.001-0.079-0.04-0.084l-0.686-0.075c-0.04-0.004-0.069,0.035-0.055,0.073
		c0.111,0.301,0.017,1.073-0.063,1.577c-0.84,0.083-1.588,0.844-1.767,1.878c-0.144,0.837,0.123,1.63,0.634,2.093
		c0.551,0.498,0.787,1.256,0.674,1.99c-0.068,0.436-0.16,0.776-0.16,0.776c-0.23,0.685-0.414,1.612-0.698,2.678
		c0.089-0.015,0.086-0.018,0.183-0.018c0.888,0,1.401,0.42,1.642,1.153c0.848-0.488,1.595-0.938,2.141-1.299
		c0,0,0.303-0.174,0.708-0.351c0.681-0.299,1.476-0.264,2.098,0.14c0.578,0.376,1.413,0.43,2.185,0.078
		C44.193,18.046,44.753,16.89,44.332,15.971z M35.223,13.154c-0.7-0.122-1.149-0.904-1.004-1.746
		c0.145-0.846,0.829-1.43,1.529-1.311c0.7,0.12,1.148,0.902,1.005,1.746C36.606,12.686,35.923,13.273,35.223,13.154z M42.858,18.06
		c-0.778,0.354-1.649,0.12-1.944-0.525c-0.296-0.646,0.097-1.458,0.875-1.815c0.778-0.355,1.649-0.121,1.944,0.525
		C44.029,16.89,43.637,17.704,42.858,18.06z"/>
</g>
</svg>
