<?xml version="1.0" encoding="utf-8"?>
<!-- Generator: Adobe Illustrator 16.0.0, SVG Export Plug-In . SVG Version: 6.00 Build 0)  -->
<!DOCTYPE svg PUBLIC "-//W3C//DTD SVG 1.1//EN" "http://www.w3.org/Graphics/SVG/1.1/DTD/svg11.dtd">
<svg version="1.1" id="Calque_1" xmlns="http://www.w3.org/2000/svg" xmlns:xlink="http://www.w3.org/1999/xlink" x="0px" y="0px"
	 width="48.063px" height="32.813px" viewBox="0.5 6 48.063 32.813" enable-background="new 0.5 6 48.063 32.813"
	 xml:space="preserve">
<rect x="3.686" y="31.367" fill="none" width="23.417" height="3.74"/>
<g>
	<g>
		<path fill="#CDB969" d="M4.443,26.088v2.883c0,0.217-0.196,0.287-0.661,0.287V29.4h7.089v-2.643c-1,0-1.482,0.643-1.678,1.607
			c-0.179,0.893-0.661,0.893-1.232,0.893H7.532c-0.392,0-0.5-0.037-0.5-0.305v-2.865 M4.443,25.135v-5.734
			c0-0.215-0.196-0.287-0.661-0.287v-0.142h3.911v0.142c-0.465,0-0.661,0.072-0.661,0.287v5.734H4.443L4.443,25.135z"/>
		<path fill="#CDB969" d="M18.658,26.088v2.438c0,0.127,0.054,0.59,0.5,0.59h0.161v0.145c-1.946,0.143-2.161,0.158-2.25,0.158
			c-0.554,0-1-0.158-1-0.893v-0.553c-0.036,0.09-0.446,1.428-1.804,1.428c-1.446,0-2.018-0.98-2.018-2.625v-0.688h2.571v1.92
			c0,0.375,0.179,0.553,0.411,0.553c0.536,0,0.75-0.873,0.839-1.248v-1.225H18.658z M16.069,25.135v-2.253
			c0-0.268-0.322-0.304-0.661-0.304v-0.142c1.232,0,2.357-0.286,3.25-0.822v3.521H16.069z M12.247,25.135v-2.253
			c0-0.268-0.322-0.304-0.661-0.304v-0.142c1.232,0,2.339-0.286,3.232-0.822v3.521H12.247z"/>
		<path fill="#CDB969" d="M23.284,26.088v2.883c0,0.217,0.196,0.287,0.66,0.287V29.4h-3.91v-0.143c0.464,0,0.661-0.07,0.661-0.287
			v-2.883H23.284 M20.695,25.135v-2.253c0-0.268-0.322-0.304-0.661-0.304v-0.142c1.232,0,2.357-0.286,3.25-0.822v3.521H20.695z
			 M20.873,20.043c0-0.607,0.5-1.107,1.125-1.107c0.607,0,1.107,0.5,1.107,1.107c0,0.625-0.5,1.125-1.107,1.125
			C21.374,21.168,20.873,20.668,20.873,20.043z"/>
		<path fill="#CDB969" d="M31.392,26.088v2.438c0,0.127,0.054,0.59,0.5,0.59h0.161v0.145l-1.912,0.143
			c-0.714,0.035-1.339,0-1.339-0.875v-0.16c-0.25,0.605-0.964,1.035-1.731,1.035c-1.089,0-2.3-0.869-2.479-3.313l2.447-0.02
			c0.104,2.004,0.524,2.813,0.959,2.813c0.5,0,0.785-0.555,0.804-1.037v-1.758H31.392z M28.802,25.135v-0.932
			c-0.071-0.929-0.125-1.821-0.839-1.821c-0.465,0-0.946,0.625-0.946,2.696c0,0.018,0,0.037,0,0.057h-2.438
			c0.119-2.295,1.511-3.521,2.688-3.521c0.679,0,1.285,0.393,1.535,1.25v-3.447c0-0.268-0.321-0.304-0.66-0.304v-0.142
			c1.231,0,2.356-0.286,3.25-0.822v6.984h-2.59V25.135z"/>
		<path fill="#CDB969" d="M35.91,26.088v5.277c0,0.84-0.321,2.98-4.035,2.98c0,0,1.445-0.625,1.445-3.605v-4.652H35.91z
			 M33.322,25.135v-2.253c0-0.268-0.322-0.304-0.662-0.304v-0.142c1.232,0,2.357-0.286,3.25-0.822v3.521H33.322z M33.428,20.078
			c0-0.607,0.5-1.106,1.125-1.106c0.607,0,1.107,0.5,1.107,1.106c0,0.626-0.5,1.125-1.107,1.125
			C33.928,21.203,33.428,20.704,33.428,20.078z"/>
		<path fill="#CDB969" d="M43.234,25.135l0.979-3.217c0.036-0.143,0.019-0.161-0.179-0.161h-0.304v-0.143h1.339v0.143h-0.179
			c-0.269,0-0.394,0.018-0.429,0.179l-0.979,3.197L43.234,25.135z M38.22,25.141l-0.826-3.081c-0.054-0.231-0.286-0.303-0.911-0.303
			v-0.143h4.215v0.143c-0.429,0-0.715,0-0.644,0.232l0.836,3.138L38.22,25.141z M41.142,26.086c0.322,1.246,0.679,2.439,0.876,2.439
			c0.072,0,0.161-0.072,0.286-0.34l0.64-2.1h0.25L42.179,29.4c-0.394,1.41-1.035,3.84-3.106,3.84c-0.894,0-1.572-0.68-1.572-1.572
			c0-0.855,0.625-1.535,1.447-1.535c1.5,0,1.356,1.357,1.821,1.357c0.57,0,0.821-0.982,1.16-2.09l0.196-0.607
			c-0.321,0.34-0.805,0.607-1.41,0.607c-1.036,0-1.482-0.5-1.768-1.555l-0.475-1.76H41.142z"/>
	</g>
	<text transform="matrix(1 0 0 1 3.7412 34.2949)" fill="#CDB969" font-family="'OldSansBlack'" font-size="6">coiffure</text>
	<g>
		
			<ellipse transform="matrix(0.1691 -0.9856 0.9856 0.1691 18.4188 44.3995)" fill="none" cx="35.542" cy="11.276" rx="1.551" ry="1.286"/>
		
			<ellipse transform="matrix(-0.9096 0.4156 -0.4156 -0.9096 87.798 13.9696)" fill="none" cx="42.379" cy="16.538" rx="1.55" ry="1.287"/>
		<path fill="#CDB969" d="M44.387,15.622c-0.421-0.919-1.66-1.254-2.77-0.746c-0.533,0.243-0.939,0.639-1.172,1.085
			c-0.271,0.527-0.714,0.949-1.271,1.152c-1.031,0.375-2.529,0.875-3.431,0.97c-0.138-0.895-0.037-2.471,0.063-3.563
			c0.053-0.592,0.348-1.126,0.788-1.525c0.373-0.336,0.649-0.83,0.749-1.409c0.193-1.127-0.355-2.177-1.249-2.444
			c0.022-0.509,0.082-1.277,0.25-1.545c0.021-0.035,0.001-0.079-0.04-0.084l-0.686-0.075c-0.041-0.004-0.069,0.035-0.056,0.073
			c0.111,0.301,0.017,1.073-0.063,1.577c-0.84,0.083-1.588,0.844-1.766,1.878c-0.145,0.837,0.122,1.63,0.633,2.093
			c0.551,0.498,0.787,1.256,0.674,1.99c-0.067,0.436-0.159,0.776-0.159,0.776c-0.229,0.685-0.414,1.612-0.698,2.678
			c0.089-0.015,0.086-0.018,0.184-0.018c0.888,0,1.4,0.42,1.642,1.153c0.848-0.488,1.595-0.938,2.142-1.299
			c0,0,0.303-0.174,0.707-0.351c0.682-0.299,1.477-0.264,2.098,0.14c0.578,0.376,1.414,0.43,2.186,0.078
			C44.248,17.697,44.808,16.541,44.387,15.622z M35.277,12.805c-0.699-0.122-1.148-0.904-1.004-1.746
			c0.145-0.846,0.829-1.43,1.529-1.311c0.699,0.12,1.148,0.902,1.005,1.746C36.66,12.337,35.978,12.924,35.277,12.805z
			 M42.912,17.711c-0.777,0.354-1.648,0.12-1.943-0.525c-0.296-0.646,0.098-1.458,0.875-1.815c0.777-0.354,1.648-0.121,1.943,0.525
			C44.084,16.541,43.691,17.355,42.912,17.711z"/>
	</g>
</g>
</svg>
