<?xml version="1.0" encoding="utf-8"?>
<!-- Generator: Adobe Illustrator 16.0.0, SVG Export Plug-In . SVG Version: 6.00 Build 0)  -->
<!DOCTYPE svg PUBLIC "-//W3C//DTD SVG 1.1//EN" "http://www.w3.org/Graphics/SVG/1.1/DTD/svg11.dtd">
<svg version="1.1" id="Calque_1" xmlns="http://www.w3.org/2000/svg" xmlns:xlink="http://www.w3.org/1999/xlink" x="0px" y="0px"
	 width="160px" height="160px" viewBox="0 0 160 160" enable-background="new 0 0 160 160" xml:space="preserve">
<g>
	<path d="M17.32,89.787 M17.32,92.792v9.106c0,0.677-0.619,0.903-2.085,0.903v0.449h22.38v-8.343c-3.157,0-4.679,2.028-5.298,5.072
		c-0.563,2.821-2.087,2.821-3.891,2.821h-1.354c-1.239,0-1.578-0.115-1.578-0.959v-9.051 M25.495,89.787 M17.32,89.787V71.681
		c0-0.678-0.619-0.904-2.085-0.904v-0.449h12.346v0.449c-1.466,0-2.085,0.226-2.085,0.904v18.106H17.32z"/>
	<path d="M62.202,92.792v7.696c0,0.396,0.167,1.861,1.576,1.861h0.508v0.452c-6.145,0.449-6.821,0.505-7.104,0.505
		c-1.748,0-3.157-0.505-3.157-2.818v-1.746c-0.113,0.281-1.409,4.509-5.695,4.509c-4.566,0-6.369-3.1-6.369-8.287v-2.172h8.118
		v6.062c0,1.183,0.563,1.746,1.295,1.746c1.692,0,2.369-2.759,2.651-3.944v-3.863H62.202z M62.202,89.787 M54.025,89.787v-7.113
		c0-0.845-1.016-0.961-2.087-0.961v-0.447c3.891,0,7.442-0.904,10.264-2.595v11.117H54.025z M41.961,89.787v-7.113
		c0-0.845-1.016-0.961-2.088-0.961v-0.447c3.891,0,7.386-0.904,10.206-2.595v11.117H41.961z"/>
	<path d="M68.63,89.787 M68.63,92.792 M76.805,92.792v9.106c0,0.677,0.62,0.903,2.084,0.903v0.449H66.546v-0.449
		c1.462,0,2.084-0.227,2.084-0.903v-9.106H76.805 M76.805,92.792 M76.805,89.787 M68.63,89.787v-7.113
		c0-0.845-1.016-0.961-2.084-0.961v-0.447c3.887,0,7.438-0.904,10.259-2.595v11.117H68.63z M69.194,73.709
		c0-1.917,1.579-3.496,3.552-3.496c1.917,0,3.496,1.579,3.496,3.496c0,1.973-1.579,3.552-3.496,3.552
		C70.773,77.261,69.194,75.682,69.194,73.709z"/>
	<path d="M102.401,92.792v7.696c0,0.396,0.17,1.861,1.579,1.861h0.508v0.452l-6.035,0.449c-2.254,0.111-4.227,0-4.227-2.763V99.98
		c-0.79,1.918-3.044,3.271-5.469,3.271c-3.437,0-7.262-2.745-7.823-10.455l7.729-0.063c0.326,6.329,1.656,8.882,3.026,8.882
		c1.576,0,2.48-1.746,2.536-3.271v-5.553H102.401z M94.227,89.787v-2.942c-0.226-2.933-0.396-5.75-2.65-5.75
		c-1.465,0-2.988,1.973-2.988,8.513c0,0.063,0,0.12,0,0.18h-7.696c0.372-7.246,4.767-11.117,8.485-11.117
		c2.144,0,4.06,1.242,4.85,3.949V71.737c0-0.846-1.016-0.96-2.087-0.96v-0.449c3.893,0,7.443-0.904,10.262-2.595v22.054H94.227z"/>
	<path d="M116.667,92.792v16.661c0,2.65-1.016,9.414-12.739,9.414c0,0,4.565-1.973,4.565-11.387V92.792H116.667z M108.493,89.787
		v-7.113c0-0.845-1.016-0.961-2.088-0.961v-0.447c3.892,0,7.444-0.904,10.262-2.595v11.117H108.493z M108.83,73.821
		c0-1.917,1.579-3.494,3.552-3.494c1.917,0,3.496,1.577,3.496,3.494c0,1.975-1.579,3.551-3.496,3.551
		C110.409,77.373,108.83,75.796,108.83,73.821z"/>
	<path d="M139.786,89.787l3.097-10.157c0.114-0.452,0.059-0.508-0.563-0.508h-0.957V78.67h4.227v0.452h-0.564
		c-0.845,0-1.238,0.056-1.353,0.563l-3.092,10.102H139.786z M123.959,89.802l-2.609-9.724c-0.17-0.73-0.901-0.956-2.877-0.956V78.67
		h13.307v0.452c-1.354,0-2.255,0-2.031,0.733l2.639,9.907L123.959,89.802z M133.182,92.786c1.019,3.934,2.141,7.702,2.769,7.702
		c0.226,0,0.508-0.226,0.9-1.071l2.021-6.625h0.788l-3.201,10.459c-1.242,4.455-3.271,12.122-9.811,12.122
		c-2.818,0-4.961-2.143-4.961-4.963c0-2.704,1.973-4.847,4.568-4.847c4.734,0,4.281,4.283,5.75,4.283
		c1.803,0,2.592-3.101,3.663-6.596l0.619-1.917c-1.013,1.071-2.535,1.917-4.452,1.917c-3.271,0-4.68-1.58-5.58-4.906l-1.494-5.556
		L133.182,92.786z"/>
</g>
<g>
	<path d="M19.611,119.003c-0.791,0-1.458-0.15-2.002-0.451c-0.544-0.302-0.979-0.704-1.307-1.207
		c-0.327-0.503-0.563-1.077-0.708-1.722c-0.146-0.645-0.218-1.314-0.218-2.012c0-0.687,0.072-1.354,0.218-2.005
		c0.145-0.648,0.383-1.225,0.715-1.728s0.771-0.906,1.314-1.207c0.543-0.302,1.211-0.452,2.001-0.452
		c0.856,0,1.609,0.195,2.258,0.585c0.33,0.194,0.614,0.48,0.854,0.855c0.24,0.376,0.449,0.87,0.628,1.481l-2.061,0.494
		c-0.15-0.433-0.357-0.791-0.621-1.072c-0.264-0.282-0.64-0.424-1.129-0.424c-0.283,0-0.53,0.059-0.741,0.178
		s-0.388,0.275-0.529,0.47s-0.257,0.416-0.346,0.662c-0.089,0.246-0.158,0.5-0.205,0.761c-0.047,0.261-0.077,0.52-0.091,0.775
		c-0.014,0.257-0.021,0.489-0.021,0.697c0,1.129,0.165,1.982,0.494,2.563c0.301,0.559,0.8,0.839,1.497,0.839
		c0.272,0,0.505-0.038,0.698-0.113s0.36-0.181,0.501-0.317c0.141-0.137,0.268-0.298,0.381-0.487c0.113-0.188,0.221-0.395,0.325-0.62
		l2.117,0.551c-0.207,0.536-0.435,0.98-0.685,1.334c-0.249,0.353-0.539,0.646-0.868,0.877
		C21.431,118.771,20.608,119.003,19.611,119.003z"/>
	<path d="M28.439,119.003c-0.817,0-1.507-0.144-2.071-0.43c-0.563-0.287-1.022-0.678-1.374-1.172
		c-0.352-0.493-0.606-1.068-0.761-1.722c-0.155-0.653-0.232-1.344-0.232-2.068c0-0.724,0.078-1.414,0.232-2.067
		c0.155-0.653,0.409-1.228,0.761-1.722s0.811-0.885,1.374-1.172c0.564-0.287,1.254-0.431,2.071-0.431
		c0.818,0,1.505,0.144,2.065,0.431c0.559,0.287,1.015,0.678,1.367,1.172s0.605,1.068,0.761,1.722s0.232,1.344,0.232,2.067
		c0,1.703-0.375,3.021-1.127,3.952C30.976,118.523,29.876,119.003,28.439,119.003z M28.439,110.14c-0.765,0-1.317,0.284-1.656,0.854
		c-0.359,0.588-0.539,1.461-0.539,2.618c0,1.158,0.18,2.03,0.539,2.619c0.339,0.569,0.892,0.854,1.656,0.854
		c0.755,0,1.303-0.284,1.643-0.854c0.358-0.589,0.538-1.461,0.538-2.619c0-1.157-0.179-2.03-0.538-2.618
		C29.742,110.424,29.194,110.14,28.439,110.14z"/>
	<path d="M34.36,108.361h2.245v10.501H34.36V108.361z"/>
	<path d="M40.416,112.426h3.402l0.014,1.92l-3.416,0.015v4.502h-2.244v-10.501h6.803v1.92h-4.559V112.426z"/>
	<path d="M48.263,112.426h3.401l0.015,1.92l-3.416,0.015v4.502h-2.244v-10.501h6.803v1.92h-4.559V112.426z"/>
	<path d="M58.016,119.003c-1.289,0-2.289-0.346-2.999-1.037c-0.711-0.691-1.066-1.686-1.066-2.985v-6.619h2.244v6.485
		c0,0.82,0.136,1.397,0.41,1.727c0.253,0.341,0.714,0.511,1.383,0.511c0.357,0,0.651-0.042,0.882-0.128
		c0.23-0.084,0.411-0.207,0.543-0.368c0.272-0.33,0.409-0.901,0.409-1.714v-6.513h2.244v6.521c0,1.336-0.349,2.356-1.044,3.063
		C60.327,118.65,59.324,119.003,58.016,119.003z"/>
	<path d="M67.295,114.713h-1.432v4.149h-2.244v-10.501h4.205c0.515,0,0.984,0.07,1.406,0.211c0.422,0.142,0.78,0.349,1.076,0.622
		c0.295,0.272,0.525,0.613,0.689,1.022s0.246,0.883,0.246,1.419c0,0.621-0.157,1.16-0.47,1.616s-0.761,0.788-1.341,0.994
		l2.277,4.616h-2.502L67.295,114.713z M67.43,110.281h-1.567v2.512h1.341c0.216,0,0.433-0.012,0.649-0.034
		c0.216-0.022,0.409-0.076,0.579-0.159c0.169-0.082,0.306-0.202,0.409-0.358c0.104-0.157,0.155-0.368,0.155-0.636
		c0-0.239-0.033-0.44-0.099-0.606c-0.066-0.166-0.16-0.3-0.283-0.4C68.371,110.386,67.976,110.281,67.43,110.281z"/>
	<path d="M73.119,108.361h7.043v1.92h-4.799v2.145h3.5v1.92l-3.5,0.015v2.582h4.968v1.92h-7.212V108.361z"/>
</g>
<g>
	<path fill="none" d="M119.5,46.719c0.455-2.665-0.962-5.134-3.173-5.513c-2.211-0.376-4.371,1.468-4.829,4.139
		c-0.457,2.659,0.96,5.128,3.17,5.513C116.879,51.236,119.039,49.381,119.5,46.719z"/>
	<path fill="none" d="M135.401,58.959c-2.46,1.127-3.698,3.689-2.766,5.729c0.934,2.038,3.685,2.777,6.142,1.659
		c2.456-1.124,3.695-3.695,2.761-5.73C140.608,58.578,137.857,57.837,135.401,58.959z"/>
	<path d="M143.43,59.752c-1.33-2.903-5.243-3.96-8.745-2.354c-1.685,0.766-2.968,2.017-3.695,3.426
		c-0.86,1.664-2.255,2.994-4.017,3.637c-3.255,1.183-7.983,2.762-10.828,3.062c-0.434-2.824-0.119-7.799,0.194-11.248
		c0.167-1.87,1.098-3.555,2.488-4.814c1.178-1.063,2.052-2.622,2.366-4.447c0.614-3.558-1.127-6.875-3.944-7.717
		c0.07-1.608,0.261-4.033,0.79-4.878c0.066-0.111,0.002-0.25-0.127-0.267l-2.163-0.238c-0.126-0.012-0.221,0.111-0.174,0.232
		c0.353,0.951,0.053,3.387-0.196,4.978c-2.65,0.262-5.014,2.666-5.577,5.93c-0.455,2.642,0.388,5.146,1.999,6.607
		c1.74,1.574,2.485,3.966,2.128,6.285c-0.215,1.377-0.505,2.448-0.505,2.448c-0.729,2.163-1.307,5.09-2.205,8.454
		c0.279-0.047,0.271-0.056,0.575-0.056c2.804,0,4.427,1.326,5.185,3.64c2.677-1.541,5.034-2.959,6.757-4.101
		c0,0,0.957-0.549,2.237-1.11c2.148-0.942,4.659-0.833,6.622,0.443c1.826,1.189,4.461,1.356,6.895,0.247
		C142.992,66.303,144.756,62.652,143.43,59.752z M114.668,50.857c-2.21-0.384-3.627-2.854-3.17-5.513
		c0.458-2.671,2.618-4.515,4.829-4.139c2.211,0.378,3.628,2.848,3.173,5.513C119.039,49.381,116.879,51.236,114.668,50.857z
		 M138.777,66.347c-2.457,1.119-5.208,0.379-6.142-1.659c-0.933-2.04,0.306-4.602,2.766-5.729c2.456-1.122,5.207-0.381,6.137,1.658
		C142.473,62.652,141.233,65.223,138.777,66.347z"/>
</g>
</svg>
