<?xml version="1.0" encoding="utf-8"?>
<!-- Generator: Adobe Illustrator 16.0.0, SVG Export Plug-In . SVG Version: 6.00 Build 0)  -->
<!DOCTYPE svg PUBLIC "-//W3C//DTD SVG 1.1//EN" "http://www.w3.org/Graphics/SVG/1.1/DTD/svg11.dtd">
<svg version="1.1" id="Calque_1" xmlns="http://www.w3.org/2000/svg" xmlns:xlink="http://www.w3.org/1999/xlink" x="0px" y="0px"
	 width="193.333px" height="466.665px" viewBox="145.834 -32.832 193.333 466.665"
	 enable-background="new 145.834 -32.832 193.333 466.665" xml:space="preserve">
<image display="none" overflow="visible" opacity="0.7" enable-background="new    " width="200" height="200" xlink:href="58B27E60.jpg"  transform="matrix(1.5275 0 0 1.5275 88.2498 74.501)">
</image>
<g>
	<rect x="188.128" y="-18.146" fill="#CDB969" width="13.811" height="21.575"/>
	<rect x="209.252" y="-18.147" fill="#CDB969" width="13.164" height="21.575"/>
	<rect x="229.73" y="-18.147" fill="#CDB969" width="13.164" height="21.575"/>
	<rect x="250.207" y="-18.147" fill="#CDB969" width="13.164" height="21.575"/>
	<rect x="270.685" y="-18.147" fill="#CDB969" width="13.164" height="21.575"/>
	<rect x="291.163" y="-18.147" fill="#CDB969" width="13.163" height="21.575"/>
	<rect x="311.64" y="-18.147" fill="#CDB969" width="13.812" height="21.575"/>
	<path fill="#CDB969" d="M316.211,70.576V37.749l9.24-34.319H188.128l9.24,34.319v6.636h-29.532l-14.441,74.565l12.924,2.502
		l12.375-63.903h18.674v13.084c-7.252,4.169-12.159,11.977-12.159,20.924v94.892c0,0.096,0.002,0.19,0.006,0.285
		c0.427,9.849,4.49,15.266,7.458,19.219c2.001,2.668,2.701,3.725,2.686,5.187l0.088,85.325c0,0.085,0.002,0.172,0.006,0.26
		l2.56,63.138c0.01,0.258,0.036,0.516,0.077,0.771c2.645,16.583,14.438,18.71,24.417,18.71h10.999l2.949,29.456
		c1.375,14.163,8.144,15.573,16.186,15.882c0.084,0.003,0.169,0.005,0.253,0.005h7.268c0.084,0,0.169-0.002,0.254-0.005
		c8.042-0.309,14.81-1.719,16.185-15.861l2.949-29.477h11.614c9.979,0,21.771-2.127,24.416-18.71
		c0.042-0.255,0.067-0.513,0.078-0.771l2.561-63.138c0.003-0.088,0.006-0.175,0.006-0.26l0.086-85.402
		c-0.013-1.385,0.686-2.442,2.687-5.11c2.969-3.954,7.033-9.369,7.459-19.218c0.005-0.096,0.006-0.189,0.006-0.286V91.556
		C328.461,82.571,323.515,74.729,316.211,70.576z M280.893,80.586l-6.633,70.088c-0.797,8.673-2.178,11.043-2.93,11.686
		c-1.067,0.911-4.621,1.066-8.409,1.22h-12.787c-3.788-0.153-7.342-0.309-8.409-1.22c-0.752-0.643-2.132-3.013-2.929-11.702
		l-6.632-70.071H280.893z M312.091,13.668l-4.922,18.284H265.17v13.164h40.803v15.357h-98.366V45.117h41.475V31.953H206.41
		l-4.922-18.284H312.091z M263.497,407.525c-0.203,2.095-0.456,3.235-0.636,3.823c-0.739,0.088-1.89,0.135-2.827,0.171h-7.013
		c-0.938-0.036-2.09-0.083-2.828-0.171c-0.178-0.589-0.433-1.735-0.639-3.843l-0.723-7.228h7.695v-14.965h-9.193l-0.598-5.973
		h19.582L263.497,407.525z M315.297,186.297c-0.276,5.688-2.387,8.5-4.827,11.752c-2.401,3.197-5.385,7.174-5.322,13.074
		l-0.09,85.195l-2.537,62.606c-0.963,5.694-2.611,7.251-11.357,7.251h-68.656c-8.747,0-10.395-1.557-11.357-7.251l-2.538-62.606
		l-0.089-85.118c0.063-5.977-2.922-9.953-5.322-13.15c-2.44-3.253-4.551-6.065-4.828-11.752V91.556c0-6.049,4.92-10.97,10.971-10.97
		h9.596l6.749,71.293c2.05,22.358,10.452,24.308,24.046,24.858c0.088,0.005,0.177,0.007,0.267,0.007h13.054
		c0.089,0,0.178-0.002,0.266-0.007c13.594-0.551,21.996-2.5,24.046-24.841l6.749-71.311h10.211c6.05,0,10.971,4.921,10.971,10.97
		V186.297z"/>
	<rect x="249.521" y="92.897" fill="#CDB969" width="14.962" height="14.963"/>
	<rect x="227.663" y="334.605" fill="#CDB969" width="14.963" height="14.964"/>
	<rect x="271.377" y="334.605" fill="#CDB969" width="14.961" height="14.964"/>
	<path fill="#CDB969" d="M273.076,189.192h-32.149c-12.106,0-21.956,9.046-21.956,20.166v5.376c0,11.12,9.849,20.167,21.956,20.167
		h32.149c12.106,0,21.955-9.046,21.955-20.167v-5.376C295.031,198.238,285.183,189.192,273.076,189.192z M281.868,214.733
		c0,3.861-3.944,7.002-8.792,7.002h-32.149c-4.847,0-8.791-3.141-8.791-7.002v-5.376c0-3.861,3.944-7.001,8.791-7.001h32.149
		c4.848,0,8.792,3.141,8.792,7.001V214.733z"/>
	<rect x="237.256" y="247.698" fill="#CDB969" width="39.493" height="11.701"/>
	<rect x="237.256" y="275.489" fill="#CDB969" width="39.493" height="11.701"/>
	<rect x="237.256" y="296.333" fill="#CDB969" width="39.493" height="11.701"/>
</g>
</svg>
